<svg xmlns="http://www.w3.org/2000/svg" width="200" height="186" fill="none" viewBox="0 0 200 186"><path fill="currentColor" d="M19 71.3q1.2.2 1.2 1.2l-1 6-2.6 13.7q-.5 2-.7 4a1 1 0 0 0 2 .2l1.3-5.7 2.9-13.3c.1-.8.7-3.9 1.2-4.6.4-.8 2.4-.6 2.1 1q-.4 3-1 5.8l-1.8 10.8-1 5.9q-.3.8.2 1.6.3.3.7.3t.8-.3c.6-.6 4-17.8 4.4-20q.2-1.7.7-3.5 0-.5.4-.8t.9-.2.8.4q.4.7.2 1.4-.3 2.8-1 5.6l-2.5 16.3q-.3.9.1 1.8.3.4.8.4t.8-.5c.7-1.2 1-3.9 1.2-5.3l2.3-12 .8-4.6q.1-1.4.8-2.3c.6-.6 2 0 2 .7l-.3 4.6q-.4 9.3-1.4 18.6c-.6 5-1.2 11-5.9 14.2l-3 1.6c-3.1 2.4-3 6-3.5 9.4l-1.2 9-4.5 34.5c-.5 4.2-.8 9.9-2.4 13.8-1.6 3.8-7 5.4-10.5 3.1-5.2-3.3-3-9.8-1.8-14.6l2.3-9 8.4-33.5 2.4-10c1-4.7-3.5-6.3-4.6-10.4-1.3-4.6.3-9.5 1.5-14a247 247 0 0 1 5.1-16.7l1.5-4q.3-.5 1-.6m86.6-31a60 60 0 0 1 56.8 42c5 14.9 3.8 31.1-3.2 45.2a61 61 0 0 1-35.7 31.2 60.5 60.5 0 0 1-72.7-85.2c1.8 7.8 1.2 13.8 4.7 21.3-.1 2.9-.5 4.8-.3 7.9a51 51 0 0 0 7.2 24 9 9 0 0 0-.4 7q1.5 4.2 5.3 6.7 4.8 3.1 10.4 2a50 50 0 0 0 33.1 7.8c.9-.2 3.5-.7 4.1-.6l5.5 1.3c4.6.6 9.5.3 13.3-2.5a21 21 0 0 0 8-13.9q1.6.2 3.2.1c8.8-.3 15.5-8.1 10.5-16.5-.8-1.3-1.8-2.1-3-3.2.6-2.5 1.2-4.6 1.5-7.2a50 50 0 0 0-5-29.3c-1.5-2.9-3-4.9-4.6-7.6 1.6-5-.1-10.2-3.5-14-1.1-1.3-3.1-1.6-4.1 0-1.2 2 .7 3.9 1.6 5.6q.9 1.5 1.3 3.2-3.6-3.5-7.9-6.3c-.7-.6-4.2-2.1-4.6-2.7-2.4-3.3-4.7-5.9-9-6.9-2.7-.6-6.3-.5-9 .6-.7.3-1.6 1-2.4 1l-6.5.4c-8 .8-15 3-21.8 7.3-4.6-.3-9.5.7-12.6 4.5a16 16 0 0 0-3.2 11.3c-2.1 3.7-3 5.6-4.6 9.6-1-5.5-1.2-12.3-3.5-17.2a60 60 0 0 1 51.1-26.8m35 91.3a23 23 0 0 1-4 11.6 14 14 0 0 1-9.4 6.3c-7.7 1.2-20-3.8-26-8l-.5-2.5c3.1 1.2 4.9 2.4 7.7 4 2.5 1.4 6 2.5 8.8 3.2 4.5 1.1 10 1.5 14-1s5.6-7 6.6-11.5q1.5-1 2.6-2.3zM102 143.8l2.1 1.2 3 1.5c.8.3 3.4 1.4 3.8 1.7l-.1.1q-3 .3-6.1.4-1.6-2.4-2.7-4.9M94.6 126l1.1 1.4c3.3 4.4 2.8 10 4.4 15.2.8 2.7 1.4 3.7 2.9 6h-1.5l-1.7-.2c-1.7-3.3-3-6.3-3.4-10-.6-4.6-.9-7.4-3.4-11.3zm-6.7 3.4 3.2 4.6c1.3 1.7 2.5 2.8 3.8 4.3.5 3.9 1.4 6.3 3 9.8-1.8-.2-5-1-6.7-1.4a44 44 0 0 1-11.2-5q7.3-4 8-12.3m48 5.7c0 .6-.7 2.2-.9 2.8a55 55 0 0 1-12.4 7.2c-2.7 1-9.8-1.7-12.4-3l-3-1.5c3-.1 4.2-.6 6.7-1.8l5.1.7c6.3.3 11.4-1.3 16.8-4.4m-3.5 7a10 10 0 0 1-5.4 3.3v-.2c2-1 3.4-1.8 5.3-3.2m-59.6-21.2.9 1.7c-5.6 1.9-10.5 6.3-6.2 12.5 1.3 2 4.2 3.3 6.5 3.6q3.4.4 6-1.7c2.6-2 3.8-5 4.2-8.1l2.3.1-.7 3.6a12 12 0 0 1-7.4 8c-7.7 2.9-18.7-5.3-14.5-13.6 1.8-3.4 5.2-5 8.9-6.1m32.4-3.6c5.2-.6 11 2.6 12.7 7.8.8 2.2.4 5.2-.7 7.3a12 12 0 0 1-7.4 6.3q-5 1-9.4-1.8c-1-5-1-6.3-3.6-10.7 1.9-4.4 3.1-8 8.4-8.9m36.8-12.6q.2 0 .3.2c2 4.6 3.2 10 2.4 15-1.5 10-11.4 17-21.1 18-2.8.2-4.8.1-7.5-.3l-.4-.1c0-.5 1.2-1.6 1.6-2.2 4.3.7 10.7-.3 14.5-2.2 11.2-5.5 13.1-17 8.2-27.4zm-67.4 19.1a16 16 0 0 0 8 4.7c-.2 4.4-2.5 8-7 8.8h-1.9c-1.4-1.3-3-3.1-4.4-4.3-5-4 1.1-7.9 5.3-9.2m39.3 5.3c-.7.6-1 2.2-1.6 3a6 6 0 0 1-4.9 2.6c-.7 0-1.7-.2-2.4.3q-.4 1 .8 1.3c2.7 0 4.6-.1 6.7-2 1-.8 3.9-4.9 1.4-5.2m-22.4-1.2.8 1c1.5 2.2 1.8 4.2 2.2 6.7l-1.1-1.3a35 35 0 0 1-4-5.7zm27.7 3.9c2 1.5 2.2 1.2 4.2 2l-.8.2h-4.4zm27-18.7 2.4 1.1c11.1 5.6 8.6 18.5-4.4 19l-2.3-.1.2-2.7c2.6.2 4.2.2 6.7-.8 3.4-1.3 5.4-4.6 3.9-8.1-1.2-2.7-3.6-4.2-6.2-5.2q0-1.6-.3-3.2m-19.5-.7q5.8-.7 9 4.2c-.6 3.8.1 7.4 1 11.1a14 14 0 0 1-9 4.8q-4.4.5-8-2.3c.4-4.6.2-5.7-2.4-9.6 1.1-4.7 4.7-7.5 9.4-8.2m6.6 8.7c-.6.6-.6 2.6-.6 3.5-.1 2.2-3.2 3.2-3.5 4.3q.2.8 1 .7a7 7 0 0 0 4-4.3c.3-1.3 1-3.8-.9-4.2m13.2-3.2c1 .4 1.5.7 2.4 1.4q-2.1 4.7-4.7 8.9-.3.5-.7.7h-.7c0-.6 1.4-2.6 1.7-3.3 1.2-2.7 1.6-4.8 2-7.7m3.9 2.8c1.3 1 1.7 3.6 1 5-1 1.7-2.4 2.3-4 2.9l-1.4.3q2.4-4.1 4.4-8.2m-66.7-15.8c6-.6 13 4.3 13.4 10.5.3 6.4-3.4 11.3-9.8 11.9-6 .4-13-3.3-13.7-9.8q-.5-4.6 2.3-8.5a11 11 0 0 1 7.8-4.1M140 110c.4.6.7 2.4.8 3.3-2 3.8-1.7 5.9-1.3 10L138 126h-.1c-.3-.5-.7-3-.8-3.7-.4-4.5 0-8.5 3-12.2M57.2 97.9c1.8 2 2.3 2.8 4.4 4.8l-.3.8c-2.3 8 .3 14.3 8.7 16.7l-2.5 1.2q-2.4 1.3-4 3.6a48 48 0 0 1-6.3-27m40.2 13c4 .8 6.9 2 10.5 3.3 3.1 1.2 5.9 1.6 8.1 4.4v.3h-.2c-.4-.1-1.6-1-2.2-1.4-3.8-2.2-8.8-3-12.7-.4q-1.4 1-2.5 2.2.8-4.3-1-8.4m-32.6-6.1q-2.2 9.5 7.1 12.5l.1 1.7h-.5c-3.5-1.1-6.7-2.3-8.5-5.8-1.7-3.4-1.2-6.3-.1-9.7zm52.2 10q.5.2.8.8-.6.7-1 1.5l-.8-.6-1.8-1.5 2.6-.2zm-33-7.2q-3.7.3-6 3c-.8 1-2.5 4.4-1.2 5.4h.8l.6-2.2c.4-2 2-3.5 3.9-4.2.8-.3 2.1-.2 3-.9q.1-1.1-1.1-1m-17.8-2c3.6 1.4 5.4 1.9 9.3 1.5a11 11 0 0 0-3 5.7l-.5 2.9c-5.2-1.6-6.6-5-5.8-10.1M168.8.3a5 5 0 0 1 3.5 0q1.5.8 2 2.2c.5 1.4 1 4.5 1.4 6l2.2 10.6 8.1 38.3 1.5 5.2 2.3 7.6 7.7 25.3c1.3 4.3 3.8 10.4 1.7 14.6-2.3 4.6-7.7 6-12.2 3.8l-.8-.5c-2.7-1.9-3.6-5-4-8.2l-.8-6.7-3.1-24.4-.9-7c-.6-5-.5-6.2-4.9-9-11.2-7.2-16.6-53-3.7-57.8m-35 112c.6.1 2 .7 2.5 1.3l-.1.6-.2.1c-.9-.7-1.2-1.2-2.3-2m9.4-39.4c.6.4 2.4 3.4 2.8 4a48 48 0 0 1 4.7 36.9q-1.7-1.1-3.7-1.9-.9-.2-1.2-.8c.2-.8 1.6-1.5 2.2-2 5.5-4 4.1-8.7.6-13.4.2-4.3-.3-5.9-2.5-9.5 2.5-5.6 0-8.6-3-12.8q-.1-.3.1-.5m-30.7 17.9c3.8-.4 6.7.3 9.4 3.1 0 4.2.6 6.4 3.4 9.5-.2 6.5-5 9.4-10.9 10.1-16 1.7-17-20.7-1.9-22.7m17 15.2c1.3.4 2 .6 3.3.7 2 1.5 3.2 2.3 5.5 3.3l-.8 1.2-.6 1c-3.4-1.8-5.6-2.5-7.4-6.2m-2.6-1.2q.3 0 .7.4c.7 1.3 1 2.8 2 4q1.5 1.5 3.4 2.6l-3-1c-2.6-.3-4 0-6.4.6 2.1-2.4 2.7-3.5 3.3-6.6m-33 1.8c2.8 0 4.6.5 7.1 1.2.7 1.4 1 1.9 1.9 3-2.6-.7-3.6-1-6.3-1.4zm54.3-9a9 9 0 0 1 2 6.4c-.6 2.3-2.4 3.6-4.3 4.9l-.3.2h-.2l-.8-2.5c2.7-2 3.4-3.1 2.5-6.5zm-9.9 8.5.3.1 1 2.6a13 13 0 0 1-4.4-2.2c1.3 0 2-.2 3.1-.5m-39-13.7a11 11 0 0 1-5 5c-2 1-6.8 0-7.1 3-.1 2 1.3 3.2 3.1 3.3 4.3 0 7-1.4 10.2-4.2q-.4 2.3-.3 4.4c0 .6.3 1.8.1 2.1-3.2-.7-5.1-.9-8.4-.6a14 14 0 0 0-9.1-2q2.6-2.9 3.7-6.3a13 13 0 0 0 12.8-5zM42 58.5c1.6-.1 4 1.2 5.2 2.1 7.4 5.2 7.9 13.5 9 21.5 1.3 10.6 7.4 21.3 19.5 20.6.1.7.5 2.2.2 2.8l-.5.2q-1.5.3-3 .1c-3.2-.1-6.2-1.6-8.8-3.5a24 24 0 0 1-9-14.4c-2-8.9-.8-21-10.3-25.7-1.4-.7-4.7-2-2.3-3.7m34.5 1.9h1.4c2.8.2 6.1 1.3 8 3.4 1.1 1.2.6 2.4-.5 3.4q-1.6-1.5-3.6-2.6C77.3 62.4 70 62.8 67.6 68c-3.4 7.6 2.8 15.3 6.9 21.2q2 3.2 3.3 6.6c1 2.5 1.7 5.7 2 8.3l-2.3 1.2a28 28 0 0 0-7-15.6c-5.5-7-9.7-17.8-3.3-25.6 2-2.6 6-3.5 9.3-3.7m58.3 22.3c13.6-1.3 18.3 19.7 1.1 22.3h-.4q-4.6.7-8.3-2a10 10 0 0 1-3.6-6.9c-.5-4.2 1.3-8.6 4.9-11a15 15 0 0 1 6.3-2.4m11 18.9c.5 1.2-.8 3.6-1.8 3.5l-.6-1.3q1.4-1 2.5-2.2m-63.6-5.7 2.8 1q-.9 2.7-2.8 4.8l-1 1-.8-3.4zm30.7-2.6a9 9 0 0 0-6.3 3.2c-.9 1-3.7 6.3-.9 5.9.5-.5.7-2.4 1-3.3q1.5-2.9 4.6-3.8c.7-.3 2.3-.5 2.5-1q0-.4-.3-.8zm15-13.8c-1.6 6.4-6.4 9-12.6 9.5-3.2.2-5.9-.4-9 1.4-2.4 1.3-3.5 3.6-5 5.8q-1.2 1.5-2.5 2.7a12 12 0 0 1-9.2 3.3c-.7-.4-1.4-1-1-2 .2-.6 1.8-.6 2.4-.6q2-.2 4-1c5.8-2.7 5.5-9.6 13.3-11.6 5.4 1.6 9.5 1.4 13.9-2.3a10 10 0 0 0 3.6-5.9zm15 11.9q-.5 1-.4 2c.3 3.2-1.6 5.5-4.5 6.6q-1 .3-1.3 1.1.4.8 1.3.6c2.5-1 4.5-2.3 5.5-4.9.5-1.2 1.7-5.3-.6-5.4m-70.4 4.3c.7.3 2.3 4.6 2.7 5.6H72l-3.3-1.2zm-1.8-2.8c.3.2.8 1 1 1.3-.8.8-4 4.8-4.7 5.1l-1.3-1q2-3 5-5.4m-8-14.7 1.6 4.5q2.1 4.9 5.6 9c-2.3 1.8-3 2.6-4.8 4.9l-.6.8a22 22 0 0 1-5.7-9.7q1.3-5 4-9.5m15.4 14.7 2.5 2.2-.5 1.4-.4.7h-.1zM85 75.2c.2.3.1 1 .2 1.3 1.3 8 7.5 9.8 14.5 7.3 0 2 .1 3.8-.8 5.7a11 11 0 0 1-6.4 5.5 12 12 0 0 1-8.8-.3C74.1 91 76 79 84.8 75.2zm11 11.3-.8 1.6c-1.2 2.7-4 3.5-6.6 4-.3 0-.3.6-.3.8q.2.5.8.6 3.7-.1 6.2-2.8c.8-.9 3.2-4 .7-4.2m27.2 2q-.7 1.7-1 3.5l-1.6-1.1-1.7-1c1.6-.4 2.7-.9 4.2-1.6zm-20.5-6.6 1 1.3c.9 1.3 1.6 1.9 2.8 2.8-2.5 1-3.4 1.8-5.3 3.8l-1.5 1.8c1.8-3.5 1.8-4.7 1.5-8.6zM75 64.9q4.8-.4 8.5 2.7c1.8 1.5 1.6 3.6 1.6 5.8A13 13 0 0 0 75.7 86q0 1.6.5 3.1c-3.2-5-7.3-9.4-8-15.6-.1-1-.1-3.3.8-4 1.7-1.5 3.4-4.3 5.7-4.5zm36.9.8c4-.3 7.9 1.6 10 5 2.8 4.9 1.8 12-3.6 14.7q-1.8 1-3.9 1c-5.4 0-9.5-2.4-11.1-7.7-2.1-6.8 1.3-12.4 8.6-13m5-9.1c5.9-.8 13.3 7.1 17.4 10.8 3.7 3.2 8 7 10.4 11.2q1.5 3 .2 6.3l-1.8-1.7c-.1-3.1-.9-4.7-2.9-7.2q-3.3-3.8-7-7.1c-3.3-3.2-6.4-6.6-10.5-8.7-5.6-3-9.3-1.6-12.1 4l-2 .4c1.1-3.9 4.2-7.3 8.2-8M88 66q0 .8.4 1.8c1 3.3-.5 7.6 1.4 10.7 2.8 4.5 8.4 2 11.8 0l.6 2-1.1.8c-3 2.1-7.9 3.2-11.1 1-4.3-3-2.8-9.2-3.7-13.7 1-.9 1.5-1.4 1.5-2.7zm41.6 13.7c1.6-.1 1.4.9 1.6 2.2l-1.9 1-.9.4zm9.6-2.5a8 8 0 0 1 2.5 5.2l-2.2-.9c-1.2-.3-1.7-.3-3-.4q-.2-1.2-.7-2.3c1.5-.5 2.1-.9 3.4-1.6m-12.6-12.5q.2 0 .3.2c1.6 1.4 3.7 2.8 4.5 5l2.8 8.9q.5 1.1.7 2.2l-.1.1-2.2.4a79 79 0 0 0-6-16.8m-36.3 10a10 10 0 0 1 6.3 2.7c.2.3 1 1.1 1.1 1.5l-.2.1c-4.4 1.2-6.7.5-7.2-4.3m34.7.1q2.2 1 4.8 1.4l.4 2a12 12 0 0 1-5-1.4zM95 69l1 1.4a9 9 0 0 0 5 3.6l.1 2.9-1.7 1.2c-.3 0-1-1-1.3-1.3a13 13 0 0 0-5-3.3A11 11 0 0 1 95 69m42 5.6c.3.3 1 1 1.2 1.4l-2.3 1.2h-.5q-.4-.8-.6-1.7zm-21.5-6c-.4.5-.3.3-.4.8.2.8 2.5 1.8 3.4 3s1 4 1.7 4.4h.5c2-2.1-1.9-8-5.2-8.2m18 2.5c.3.2 2 2.1 2.2 2.5l-.1.1-1.2.5zm-11.7-3.3.7.3c2.9 1.5 4 3 5.1 6-2.8-.4-3.2-2-4.4-4.3zm-28.4-2.4c.3.3.7 1.5.9 2q-1.1 1.6-1.9 3.2l-.8 2.6-1.2-.1c-.5-2.6 1.2-6 3-7.7m-3.8-9.6c5.7-.8 6.3 5.7 8 9.5 1.2 2.5 2.2 3.6 4.7 4.5l-.9 2.6c-2.3-.6-3.5-1.9-4.8-3.8-2-3.1-2-6.8-4.4-9.6q-.7-.9-1.6-.9c-2.7.1-2.2 4.7-2.1 6.4-.4-.7-1.5-1.8-2.1-2.5-.4-3 .3-5.2 3.2-6.2m49 1.4c2 .4 4.3 5.4 4.6 7.3.5 3 .3 5.2-1.3 7.7l-1.4-1.5c3-6.5-3-10.3-2.6-12.7q0-.5.6-.8m-21.6 3c6.6-.3 8.3 5 10.4 10a10 10 0 0 0-2.6-2.4 26 26 0 0 0-12.3-3.7l.7-1.3c1-1.5 2-2.2 3.8-2.6m11.6-.5c2 .6 9.7 6.9 11 8.8q0 .5-.3 1l-.2.1q-5-4.7-10.2-9.3zm-15.4-5.2c1-.1 2.9.3 4 .5-5.7 1-8.9 5.2-10.5 10.4-1.7 1-2.4 1.6-3.6 3.1-2.4-.7-3.3-2-4.2-4.2.6-.7 2.4-2.3 3.1-2.9 3.1-2.7 7-6.3 11.2-7m-22.7 5c1.1.4 2 3.1 2.4 4.1L91 66l-1 1.5c0-1.7-.7-6.8.4-8m22.4-8.6c6.5-.6 10.3 2 13.4 7.5l-3.4-2c-5-4-8.9-4.6-14.8-1.6a58 58 0 0 0-9.8 8.1l-.8-2.1q1.8-2 3.8-3.7c3.5-3 7-5.5 11.6-6.2m-27.6 6.5.1.2q-.5 1.6-.6 3.3l-2-1-1.5-.4q1.8-1.1 4-2m18.2-4a93 93 0 0 0-6.5 5.8l-.6-1.2a9 9 0 0 0-3-3.2c2.4-.7 6-1.2 8.5-1.3z"/></svg>